<svg width="23" height="23" viewBox="0 0 23 23" fill="none" xmlns="http://www.w3.org/2000/svg">
<path d="M11.2959 13.6364C13.2289 13.6364 14.7959 15.2034 14.7959 17.1364L14.7959 21.8031L7.7959 21.8031L7.7959 17.1364C7.7959 15.2034 9.3629 13.6364 11.2959 13.6364V13.6364Z" stroke="#FC6703" stroke-width="2" stroke-linecap="round" stroke-linejoin="round"/>
<path d="M1.2959 7.523C1.2959 6.79591 1.6905 6.12609 2.32647 5.77366L10.3265 1.34033C10.9296 1.00612 11.6622 1.00612 12.2653 1.34033L20.2653 5.77366C20.9013 6.12609 21.2959 6.79591 21.2959 7.523L21.2959 19.8031C21.2959 20.9077 20.4005 21.8031 19.2959 21.8031L3.2959 21.8031C2.19133 21.8031 1.2959 20.9077 1.2959 19.8031L1.2959 7.523Z" stroke="#404040" stroke-width="2" stroke-linecap="round" stroke-linejoin="round"/>
</svg>
